<svg width="16" height="16" viewBox="0 0 16 16" fill="none" xmlns="http://www.w3.org/2000/svg">
<path fill-rule="evenodd" clip-rule="evenodd" d="M8.41369 4.07531C9.02257 4.07531 9.54935 3.75738 9.83598 3.29005H12.775C13.0616 3.75738 13.5884 4.07531 14.1973 4.07531C15.1098 4.07531 15.8504 3.37174 15.8504 2.50482C15.8504 1.63862 15.1098 0.935073 14.1973 0.935073C13.5884 0.935073 13.0616 1.253 12.775 1.72032H9.83598C9.54935 1.253 9.02257 0.935073 8.41369 0.935073C7.50113 0.935073 6.76057 1.63863 6.76057 2.50482C6.76057 2.70426 6.80473 2.89266 6.876 3.06855L5.33288 5.6664C5.25929 5.65683 5.18569 5.64506 5.10823 5.64506C4.25687 5.64506 3.562 6.26103 3.47292 7.04849L1.80274 7.64901V0.935001H0.150391V15.065H15.0239V5.645H13.3716V13.4953H10.8926V8H9.23952V13.4953H6.7606V10.355H5.10825V13.4953H1.80276V9.32766L4.14524 8.48573C4.41715 8.67193 4.74793 8.78525 5.10815 8.78525C6.02071 8.78525 6.7605 8.08169 6.7605 7.21477C6.7605 7.01606 6.71712 6.82766 6.64585 6.65177L8.18897 4.05393C8.26178 4.06276 8.33545 4.07531 8.41369 4.07531Z" fill="#F6F7FF"/>
</svg>
