<svg width="16" height="12" viewBox="0 0 16 12" fill="none" xmlns="http://www.w3.org/2000/svg">
<path fill-rule="evenodd" clip-rule="evenodd" d="M8.47284 0.269459C10.7045 0.269459 12.5765 1.87698 12.9925 3.9957H12.9926C14.7138 4.41177 16 5.96233 16 7.79665C16 9.97157 14.241 11.7305 12.0661 11.7305H3.9339C1.75897 11.7305 0 9.99086 0 7.81594C0 5.64101 1.75901 3.88204 3.9339 3.88204H3.97158C4.42604 1.8201 6.27866 0.269459 8.47284 0.269459ZM6.00117 4.69L8.24284 3.73114C8.26349 3.71163 8.30644 3.71163 8.32709 3.71163L10.5688 4.69C10.653 4.72979 10.653 4.82965 10.5688 4.86944L8.32709 5.84781C8.30644 5.86809 8.26432 5.86809 8.24284 5.84781L6.00117 4.86944C5.91693 4.82965 5.91693 4.72979 6.00117 4.69ZM5.41426 8.88203L7.74494 9.95678C7.80867 9.99961 7.89309 9.93495 7.89309 9.84931L7.89392 6.66781C7.89392 6.62499 7.8724 6.58216 7.83019 6.56033L5.49951 5.48558C5.43578 5.44275 5.35136 5.50741 5.35136 5.59305V8.7954C5.35136 8.82902 5.37639 8.8497 5.39735 8.86701C5.40361 8.87218 5.4095 8.87706 5.41426 8.88188L5.41426 8.88203ZM11.1552 8.89164L8.82817 9.96512L8.82817 9.9651C8.74306 9.98606 8.65877 9.94329 8.67943 9.85691V6.65838C8.67943 6.61561 8.70091 6.57284 8.74306 6.55104L11.0701 5.47756C11.1337 5.45576 11.218 5.49937 11.218 5.58491L11.2188 8.78429C11.2188 8.82707 11.1973 8.86984 11.1552 8.89164Z" fill="#F6F7FF"/>
</svg>
