<svg width="16" height="18" viewBox="0 0 16 18" fill="none" xmlns="http://www.w3.org/2000/svg">
<path fill-rule="evenodd" clip-rule="evenodd" d="M12.9034 5.3075C11.9294 4.03141 10.5225 3.21387 8.94116 3.00411C7.06281 2.75457 5.22686 3.39587 3.90241 4.7618L4.7932 5.64087L4.90706 5.52714C5.94555 4.52348 7.34885 4.05884 8.78206 4.24864C11.1019 4.55695 12.8091 6.52231 12.8933 8.80778L11.7753 7.74387L10.9225 8.65626L13.5385 11.1463L16 8.51335L15.094 7.65037L14.1358 8.67562L14.1224 8.47336C14.0279 7.33004 13.614 6.23633 12.9034 5.3075ZM5.07748 9.34352L2.46091 6.85363L0 9.48643L0.905974 10.3495L1.86367 9.32447L1.8779 9.53124C1.95458 10.4239 2.2254 11.2724 2.65565 12.0232C3.55584 13.594 5.1437 14.7424 7.05881 14.9959C8.93771 15.2452 10.774 14.6044 12.0976 13.2382L11.2062 12.3594L11.0925 12.4731C10.0553 13.4767 8.65193 13.9414 7.21738 13.7517C4.89807 13.443 3.19057 11.477 3.10667 9.19199L4.22472 10.256L5.07748 9.34352Z" fill="#F6F7FF"/>
</svg>
