<svg width="20" height="20" viewBox="0 0 20 20" fill="none" xmlns="http://www.w3.org/2000/svg">
<path fill-rule="evenodd" clip-rule="evenodd" d="M12.7661 11.949L14.2348 9.47959C14.3292 9.32653 14.2873 9.13265 14.1509 9.02041L12.5982 7.83673C12.6297 7.61224 12.6507 7.37755 12.6507 7.14286C12.6507 6.90816 12.6297 6.67347 12.5982 6.43878L14.1509 5.2551C14.2873 5.14286 14.3292 4.94898 14.2348 4.79592L12.7661 2.32653C12.6716 2.17347 12.4828 2.11224 12.3149 2.17347L10.4895 2.88775C10.1118 2.60204 9.70267 2.36735 9.25156 2.18367L8.97879 0.295918C8.94732 0.132653 8.78995 0 8.6116 0H5.67411C5.49577 0 5.3384 0.132653 5.30693 0.306122L5.03416 2.19388C4.59354 2.37755 4.1739 2.61224 3.79622 2.89796L1.97078 2.18367C1.80292 2.12245 1.61409 2.18367 1.51967 2.33673L0.0509219 4.80612C-0.0434974 4.95918 -0.00153323 5.15306 0.13485 5.26531L1.68752 6.44898C1.65605 6.67347 1.63507 6.90816 1.63507 7.14286C1.63507 7.37755 1.65605 7.61224 1.68752 7.84694L0.13485 9.03061C-0.00153323 9.14286 -0.0434974 9.33673 0.0509219 9.48979L1.51967 11.9592C1.61409 12.1122 1.80292 12.1735 1.97078 12.1122L3.79622 11.398C4.1739 11.6837 4.58305 11.9184 5.03416 12.102L5.30693 13.9898C5.3384 14.1531 5.49577 14.2857 5.67411 14.2857H8.6116C8.78995 14.2857 8.94732 14.1531 8.97879 13.9796L9.25156 12.0918C9.69218 11.9082 10.1118 11.6735 10.4895 11.3878L12.3149 12.102C12.4828 12.1633 12.6716 12.102 12.7661 11.949ZM7.14286 9.18367C5.98884 9.18367 5.04465 8.26531 5.04465 7.14286C5.04465 6.02041 5.98884 5.10204 7.14286 5.10204C8.29687 5.10204 9.24106 6.02041 9.24106 7.14286C9.24106 8.26531 8.29687 9.18367 7.14286 9.18367Z" fill="#F6F7FF"/>
<path fill-rule="evenodd" clip-rule="evenodd" d="M19.9199 16.8526L18.9777 16.1447C18.9973 16.0107 19.0169 15.8672 19.0169 15.7237C19.0169 15.5803 19.0071 15.4368 18.9777 15.3028L19.91 14.5949C19.9886 14.528 20.018 14.4132 19.9591 14.3175L19.0758 12.8347C19.0267 12.7391 18.909 12.7104 18.801 12.7391L17.7116 13.1695C17.4858 12.9973 17.2405 12.8538 16.9657 12.7486L16.7988 11.6198C16.789 11.505 16.6909 11.4285 16.5927 11.4285H14.8359C14.7279 11.4285 14.6298 11.505 14.62 11.6102L14.4531 12.7391C14.1881 12.8538 13.933 12.9878 13.7072 13.16L12.6178 12.7295C12.5197 12.6912 12.4019 12.7295 12.343 12.8252L11.4597 14.3079C11.4106 14.4036 11.4204 14.5184 11.5087 14.5854L12.4411 15.2933C12.4215 15.4272 12.4117 15.5707 12.4117 15.7142C12.4117 15.8577 12.4215 16.0012 12.4411 16.1351L11.5087 16.843C11.4302 16.91 11.4008 17.0248 11.4597 17.1204L12.343 18.6032C12.3921 18.6989 12.5098 18.7276 12.6178 18.6989L13.7072 18.2684C13.933 18.4406 14.1783 18.5841 14.4531 18.6893L14.62 19.8181C14.6396 19.9234 14.7279 19.9999 14.8359 19.9999H16.5927C16.7007 19.9999 16.7988 19.9234 16.8086 19.8181L16.9755 18.6893C17.2405 18.5745 17.4957 18.4406 17.7116 18.2684L18.8108 18.6989C18.909 18.7371 19.0267 18.6989 19.0856 18.6032L19.9689 17.1204C20.0278 17.0343 19.9984 16.9195 19.9199 16.8526ZM15.7094 17.0056C14.9831 17.0056 14.3844 16.4317 14.3844 15.7142C14.3844 14.9967 14.9733 14.4227 15.7094 14.4227C16.4455 14.4227 17.0344 14.9967 17.0344 15.7142C17.0344 16.4317 16.4357 17.0056 15.7094 17.0056Z" fill="#F6F7FF"/>
</svg>
