<svg width="406" height="390" viewBox="0 0 406 390" fill="none" xmlns="http://www.w3.org/2000/svg">
<path d="M0 165.326C0 97.7509 26.7974 -9.19435 143.28 0.632363C276.248 11.8629 274.784 105.089 342.828 112.491C433.023 122.318 410.681 236.856 373.636 299.518C335.89 363.327 270.965 390 217.88 390C55.8225 390.064 0 257.02 0 165.326Z" fill="url(#paint0_linear_17114_55831)"/>
<path d="M207.521 116.808C206.211 117.864 204.561 118.37 202.981 118.947C201.401 119.524 199.79 120.247 198.759 121.578C199.259 122.546 199.669 123.551 200.164 124.521L204.502 132.822C203.641 132.505 202.682 132.604 201.904 133.09C200.309 134.06 199.067 135.517 198.358 137.248C198.074 137.937 197.881 138.796 198.294 139.48C198.767 140.264 199.768 140.404 200.588 140.321C201.817 140.199 202.998 139.779 204.03 139.096C204.85 138.589 205.502 137.848 205.9 136.967C206.297 136.021 206.26 134.949 205.798 134.033L201.584 123.513C202.427 123.086 203.309 122.743 204.219 122.489C205.7 122.025 207.265 121.433 208.146 120.15C207.619 119.121 207.402 117.96 207.521 116.808Z" fill="#C8C7F9"/>
<path d="M280.138 274.413C275.428 293.052 254.486 304.67 252.386 307.223C250.285 309.84 251.24 315.33 249.585 321.649C248.185 327.011 245.575 338.182 245.193 342.842C245.129 343.736 245.129 344.374 245.257 344.693C245.957 346.672 246.212 348.076 242.902 351.268C239.592 354.46 233.99 355.992 233.799 353.374C233.545 350.821 238.128 347.183 239.083 346.225C239.21 346.097 239.274 345.587 239.274 344.693C239.274 338.757 236.982 317.245 239.337 305.244C242.011 291.711 249.267 280.158 249.521 279.775C247.994 280.158 245.511 280.285 242.965 280.349C237.81 280.413 232.081 279.902 232.081 279.902C233.354 285.903 232.781 293.052 232.463 297.648C232.399 298.414 232.399 299.052 232.526 299.627C232.908 302.308 234.5 302.818 233.036 305.627C231.253 309.01 225.079 313.287 224.634 311.244C224.188 309.266 228.644 303.712 228.644 302.818C228.644 302.755 228.58 302.499 228.453 302.116C226.734 297.329 215.34 269.625 221.196 266.178C227.498 262.412 257.16 262.156 257.16 262.156L280.138 274.413Z" fill="#C8C7F9"/>
<path d="M278.039 229.988H270.656L256.971 232.158L256.207 243.265H263.145C263.145 243.265 261.299 250.67 256.207 256.67C251.115 262.67 243.413 261.457 244.686 262.16C245.895 262.862 261.044 266.692 265.245 268.415C269.446 270.203 280.203 274.416 280.203 274.416L289.306 249.776L294.207 256.798L303.182 252.202L301.781 246.712L300.254 232.732L286.059 231.137L278.039 229.988Z" fill="#7F7CF3"/>
<path d="M283.128 211.154C283.128 211.154 277.972 216.452 278.036 220.218C278.1 223.984 280.582 225.708 280.582 225.708L278.036 230.048C278.036 230.048 277.59 233.048 279.5 233.751C281.409 234.453 285.992 231.197 285.992 231.197L294.14 225.325L291.594 211.217L287.456 207.515C287.52 207.451 283.828 206.813 283.128 211.154Z" fill="#F6F6FE"/>
<path d="M325.965 252.966C322.337 258.519 314.889 254.881 311.898 251.881C308.906 248.881 310.052 248.242 308.397 247.859C306.742 247.476 301.713 246.71 301.713 246.71C301.713 246.71 300.822 244.093 299.104 240.263C297.321 236.497 286.055 231.135 286.055 231.135C285.991 225.262 289.556 217.411 289.556 217.411C289.556 217.411 289.301 216.9 287.901 214.921C286.501 213.006 285.1 209.112 285.1 209.112L283.191 211.155C281.154 203.687 287.519 204.133 287.519 204.133C291.911 199.282 300.95 207.9 300.313 212.496C299.677 217.092 301.904 221.113 310.816 221.624C319.727 222.134 320.809 226.73 318.136 230.177C315.398 233.624 314.635 238.795 320.936 241.029C324.246 242.178 326.538 243.902 327.365 246.072C328.065 247.987 327.683 250.349 325.965 252.966Z" fill="#B6B4F8"/>
<path d="M325.968 252.965C322.34 258.518 314.893 254.88 311.901 251.88C310.246 250.22 309.864 249.263 309.546 248.688C309.292 248.241 309.101 247.986 308.4 247.794C308.019 247.667 307.446 247.603 306.809 247.475C304.709 247.092 301.717 246.645 301.717 246.645C301.717 246.645 300.826 244.028 299.107 240.198C297.325 236.432 286.059 231.07 286.059 231.07C285.995 225.197 289.56 217.346 289.56 217.346C289.56 217.346 293.697 227.559 302.481 229.219C311.265 230.879 315.72 260.114 327.305 246.007C328.069 247.986 327.687 250.348 325.968 252.965Z" fill="#5B57EF"/>
<path d="M256.971 232.155H250.669C250.669 232.155 229.919 211.217 227.309 210.834C224.7 210.451 222.854 213.132 226.036 214.728C229.219 216.324 229.728 216.835 228.519 218.047C227.309 219.26 229.728 220.409 231.319 220.537C232.911 220.665 240.867 242.687 256.207 243.198L256.971 232.155Z" fill="#F6F6FE"/>
<path d="M294.207 256.86L297.581 264.393C294.844 272.116 292.043 279.33 287.906 283.287C287.906 283.287 283.705 285.585 284.723 286.798C285.805 288.011 286.824 288.905 284.532 290.82C282.241 292.735 284.341 297.841 288.542 292.735C292.743 287.628 310.375 271.67 303.119 252.2L294.207 256.86Z" fill="#F6F6FE"/>
<path d="M223.488 288.845C223.552 289.1 223.679 289.355 223.743 289.611C216.55 289.228 208.785 289.164 201.401 289.164C181.86 289.1 164.992 289.036 162.128 282.972C161.11 280.738 162.001 277.865 165.056 274.29C181.987 253.991 239.21 251.949 259.579 251.885C259.452 252.14 259.324 252.332 259.197 252.587C238.574 252.715 182.242 254.821 165.629 274.737C162.892 278.057 161.937 280.738 162.828 282.653C165.438 288.334 182.942 288.398 201.465 288.462C208.912 288.398 216.487 288.462 223.488 288.845Z" fill="url(#paint1_linear_17114_55831)"/>
<path d="M316.167 282.204C310.756 291.588 300.317 298.673 287.523 301.546C283.513 302.44 279.503 302.886 275.557 302.886C270.465 302.886 265.436 302.184 260.853 300.716C256.716 299.439 252.897 297.652 249.587 295.29C247.932 294.141 245.768 293.184 243.222 292.418C240.23 291.524 236.666 290.822 232.846 290.375C232.846 290.12 232.846 289.864 232.846 289.609C236.793 290.12 240.421 290.758 243.54 291.716C246.086 292.482 248.25 293.503 250.032 294.716C253.47 297.078 257.352 298.929 261.553 300.205C269.51 302.567 278.548 302.886 287.396 300.844C299.999 298.035 310.311 291.077 315.594 281.885C321.322 271.927 312.729 262.927 303.691 253.416C303.373 253.096 303.118 252.777 302.8 252.458C296.434 245.756 290.197 238.925 289.178 231.521C288.796 228.648 289.178 225.712 290.706 222.648L291.342 222.967C289.878 225.903 289.56 228.84 289.942 231.648C290.96 238.734 297.007 245.373 303.118 251.82C303.5 252.203 303.882 252.586 304.2 252.969C312.984 262.161 322.15 271.8 316.167 282.204Z" fill="url(#paint2_linear_17114_55831)"/>
<path d="M300.311 206.754L297.265 205.156L289.091 220.822L292.137 222.421L300.311 206.754Z" fill="#4AEDC4"/>
<path d="M290.962 224.561C293.247 224.561 295.1 222.703 295.1 220.411C295.1 218.12 293.247 216.262 290.962 216.262C288.677 216.262 286.825 218.12 286.825 220.411C286.825 222.703 288.677 224.561 290.962 224.561Z" fill="#A4F6E1"/>
<path d="M189.691 263.496C186.508 264.9 183.262 264.645 182.498 262.858C181.734 261.134 183.707 258.517 186.89 257.113C190.072 255.708 193.319 255.964 194.083 257.751C194.846 259.538 192.873 262.092 189.691 263.496Z" fill="#33EBBD"/>
<path d="M255.123 272.054C253.15 273.458 249.522 279.778 249.522 279.778C247.994 280.161 245.512 280.288 242.966 280.352C246.976 276.905 254.678 272.245 255.123 272.054Z" fill="#A4A2F6"/>
<path d="M242.903 351.272C239.593 354.463 233.992 355.995 233.801 353.378C233.546 350.825 238.129 347.186 239.084 346.229C239.211 346.101 239.275 345.59 239.275 344.697C239.275 344.697 242.648 344.441 245.258 342.846C245.195 343.739 245.195 344.378 245.322 344.697C245.958 346.676 246.213 348.144 242.903 351.272Z" fill="white"/>
<path d="M232.975 305.629C231.192 309.012 225.018 313.289 224.573 311.246C224.127 309.267 228.583 303.714 228.583 302.82C228.583 302.756 228.519 302.501 228.392 302.118L232.529 299.628C232.847 302.309 234.439 302.756 232.975 305.629Z" fill="white"/>
<path d="M107.004 266.816C108.164 266.816 109.104 265.873 109.104 264.71C109.104 263.546 108.164 262.603 107.004 262.603C105.844 262.603 104.903 263.546 104.903 264.71C104.903 265.873 105.844 266.816 107.004 266.816Z" fill="#C8C7F9"/>
<path d="M106.434 249.009C107.278 249.009 107.962 248.323 107.962 247.477C107.962 246.631 107.278 245.945 106.434 245.945C105.59 245.945 104.906 246.631 104.906 247.477C104.906 248.323 105.59 249.009 106.434 249.009Z" fill="#C8C7F9"/>
<path d="M291.027 176.432C291.66 176.432 292.173 175.917 292.173 175.283C292.173 174.648 291.66 174.134 291.027 174.134C290.394 174.134 289.881 174.648 289.881 175.283C289.881 175.917 290.394 176.432 291.027 176.432Z" fill="white"/>
<path d="M299.554 152.748C300.152 152.748 300.637 152.262 300.637 151.662C300.637 151.063 300.152 150.577 299.554 150.577C298.957 150.577 298.472 151.063 298.472 151.662C298.472 152.262 298.957 152.748 299.554 152.748Z" fill="white"/>
<path d="M79.3181 91.8493C80.0565 91.8493 80.6552 91.2492 80.6552 90.5088C80.6552 89.7685 80.0565 89.1683 79.3181 89.1683C78.5796 89.1683 77.981 89.7685 77.981 90.5088C77.981 91.2492 78.5796 91.8493 79.3181 91.8493Z" fill="#C8C7F9"/>
<path d="M82.4982 69.5708C82.8143 69.5708 83.0706 69.3139 83.0706 68.997C83.0706 68.68 82.8143 68.4231 82.4982 68.4231C82.1821 68.4231 81.9258 68.68 81.9258 68.997C81.9258 69.3139 82.1821 69.5708 82.4982 69.5708Z" fill="#C8C7F9"/>
<path d="M113.817 86.9366C114.169 86.9366 114.454 86.6509 114.454 86.2985C114.454 85.9462 114.169 85.6605 113.817 85.6605C113.466 85.6605 113.181 85.9462 113.181 86.2985C113.181 86.6509 113.466 86.9366 113.817 86.9366Z" fill="#C8C7F9"/>
<path opacity="0.11" d="M144.307 68.0399C154.115 68.0399 162.066 60.0663 162.066 50.2304C162.066 40.3945 154.115 32.4209 144.307 32.4209C134.499 32.4209 126.548 40.3945 126.548 50.2304C126.548 60.0663 134.499 68.0399 144.307 68.0399Z" fill="white"/>
<path d="M240.869 64.6575C240.615 65.0405 240.106 65.8704 239.342 67.0832C233.231 77.1689 212.099 113.745 198.032 138.449C182.246 166.089 163.278 186.898 163.278 186.898L155.322 174.579L165.06 158.556C165.06 158.556 200.514 97.7871 201.214 96.3827C201.851 95.1061 227.439 68.1684 232.34 61.9765C232.849 61.3382 233.104 60.9552 233.168 60.7637C233.549 58.9764 226.484 51.6355 230.685 52.3377C235.968 56.5507 243.225 60.8275 240.869 64.6575Z" fill="#A4A2F6"/>
<path d="M111.713 159.78C111.713 159.78 102.038 173.504 101.529 174.909C101.019 176.313 109.103 193.74 109.103 193.74L124.761 190.229L121.961 179.505L147.077 187.869L165.029 158.673L139.72 151.163L145.894 138.332L134.627 133.034L111.713 159.78Z" fill="#7F7CF3"/>
<path d="M103.125 132.259C103.125 132.259 115.855 141.834 115.855 143.557C115.855 145.344 114.646 150.77 114.646 150.77C114.646 150.77 119.038 154.281 119.356 155.366C119.738 156.451 113.055 159.962 111.782 159.962C110.572 159.962 95.614 145.855 95.614 145.855V134.557L103.125 132.259Z" fill="#F6F6FE"/>
<path d="M99.3698 143.748L107.517 156.706C107.517 156.706 101.47 158.366 95.678 158.557C89.8857 158.749 88.6763 149.748 89.3764 147.961C89.3764 147.961 85.4937 141.067 89.1855 135.45C92.8773 129.832 99.0515 129.13 99.3698 127.024C99.688 124.917 109.363 131.109 99.3698 143.748Z" fill="#B6B4F8"/>
<path d="M109.169 193.875C109.169 193.875 117.062 209.387 120.244 210.791C123.427 212.196 162.191 222.984 164.1 223.813C165.628 227.899 168.429 230.707 170.466 232.239C171.866 233.261 175.494 231.665 176.767 229.622C179.313 225.665 172.439 222.728 171.739 219.856C171.357 218.771 171.802 218.643 172.439 218.068C173.903 216.664 173.012 215.196 170.338 215.707C166.265 216.473 128.328 199.62 128.328 199.62L124.827 190.301L109.169 193.875Z" fill="#F6F6FE"/>
<path d="M154.046 119.892C153.792 124.807 145.899 138.404 145.899 138.404L134.633 133.106L142.844 118.743C142.844 118.743 140.871 84.7198 137.561 83.7623C134.251 82.8048 133.805 77.8897 137.115 78.5918C140.425 79.294 136.415 69.2083 141.571 68.953C144.244 68.8253 145.644 70.3573 146.217 72.4638C146.727 74.4427 146.599 76.996 146.026 79.294C144.881 83.9538 154.237 114.913 154.046 119.892Z" fill="#F6F6FE"/>
<path d="M266.495 152.303L259.557 165.261L255.42 163.602L210.736 145.92C210.736 145.92 204.053 162.389 189.986 180.39C175.919 198.327 147.148 187.794 147.148 187.794L160.133 166.793C160.133 166.793 170.254 165.07 172.609 163.41C174.964 161.75 193.169 132.961 205.772 127.536C217.229 122.62 251.855 150.963 258.284 156.325C258.921 156.899 259.303 157.218 259.303 157.218C259.303 157.218 260.83 155.176 262.167 153.069C264.522 149.558 266.495 152.303 266.495 152.303Z" fill="#DAD9FB"/>
<path d="M86.6849 141.962L85.031 146.112L101.817 152.841L103.471 148.692L86.6849 141.962Z" fill="#33EBBD"/>
<path d="M101.596 156.125C104.725 156.125 107.261 153.582 107.261 150.444C107.261 147.307 104.725 144.763 101.596 144.763C98.4677 144.763 95.9314 147.307 95.9314 150.444C95.9314 153.582 98.4677 156.125 101.596 156.125Z" fill="white"/>
<path d="M101.6 156.45C98.2897 156.45 95.6163 153.769 95.6163 150.449C95.6163 147.13 98.2897 144.449 101.6 144.449C104.909 144.449 107.583 147.13 107.583 150.449C107.583 153.769 104.909 156.45 101.6 156.45ZM101.6 145.151C98.6716 145.151 96.3165 147.513 96.3165 150.449C96.3165 153.386 98.6716 155.747 101.6 155.747C104.528 155.747 106.883 153.386 106.883 150.449C106.946 147.513 104.528 145.151 101.6 145.151Z" fill="#BBF8E9"/>
<path d="M101.596 154.787C103.987 154.787 105.925 152.844 105.925 150.447C105.925 148.049 103.987 146.106 101.596 146.106C99.2059 146.106 97.2681 148.049 97.2681 150.447C97.2681 152.844 99.2059 154.787 101.596 154.787Z" fill="#33EBBD"/>
<path d="M245.895 160.022L246.532 160.278C241.758 174.129 233.929 183.066 226.927 188.684C208.659 203.238 185.808 204.004 170.531 199.854C156.464 196.088 138.005 201.642 121.774 206.557C111.335 209.685 101.915 212.557 95.0405 212.557C92.3672 212.557 90.012 212.11 88.1661 211.089C86.1293 209.94 84.7289 208.089 84.0288 205.599C83.2013 202.663 83.5196 199.408 84.9199 196.471C100.96 162.448 101.215 154.852 101.215 154.788H101.915C101.915 155.107 101.724 162.512 85.5564 196.79C84.2197 199.599 83.9015 202.663 84.6653 205.472C85.3018 207.834 86.5748 209.493 88.4844 210.515C94.7859 213.962 107.198 210.259 121.52 205.919C137.878 201.003 156.401 195.386 170.659 199.216C185.744 203.301 208.341 202.535 226.418 188.173C233.483 182.619 241.185 173.81 245.895 160.022Z" fill="url(#paint3_linear_17114_55831)"/>
<path d="M249.457 149.427C249.266 149.3 249.075 149.108 248.821 148.917C250.03 142.406 250.667 135.001 250.349 126.639C249.776 109.404 242.71 94.403 229.216 82.147C201.4 56.7413 153.916 50.0388 144.305 50.6133L144.241 49.9111C153.916 49.3366 201.655 56.0392 229.662 81.6364C243.283 94.02 250.412 109.212 250.985 126.639C251.367 135.193 250.73 142.725 249.457 149.427Z" fill="url(#paint4_linear_17114_55831)"/>
<path d="M144.307 63.4416C151.584 63.4416 157.483 57.5257 157.483 50.228C157.483 42.9304 151.584 37.0145 144.307 37.0145C137.031 37.0145 131.132 42.9304 131.132 50.228C131.132 57.5257 137.031 63.4416 144.307 63.4416Z" fill="white"/>
<path d="M144.308 59.932C149.651 59.932 153.983 55.5879 153.983 50.2293C153.983 44.8706 149.651 40.5266 144.308 40.5266C138.964 40.5266 134.633 44.8706 134.633 50.2293C134.633 55.5879 138.964 59.932 144.308 59.932Z" fill="#1DE9B6"/>
<path d="M140.742 50.2327V44.9346L145.325 47.5517L149.844 50.2327L145.325 52.8499L140.742 55.5309V50.2327Z" fill="#D1FAF0"/>
<path d="M210.698 146.11L212.289 141.897L216.49 148.408L210.698 146.11Z" fill="#918FF4"/>
<path d="M146.28 72.5725C146.216 72.9555 146.153 73.4024 146.089 73.8492C144.625 81.3177 137.178 78.6367 137.178 78.6367C140.488 79.3389 136.478 69.2532 141.633 68.9979C144.243 68.934 145.707 70.4022 146.28 72.5725Z" fill="#B6B4F8"/>
<path d="M240.865 64.6552C240.611 65.0382 240.101 65.8681 239.338 67.0809L232.336 61.9104C232.845 61.2721 233.1 60.8891 233.163 60.6976C233.545 58.9102 226.48 51.5694 230.681 52.2715C235.964 56.5484 243.22 60.8252 240.865 64.6552Z" fill="#DAD9FB"/>
<path d="M266.328 152.363L259.39 165.322L255.252 163.662L258.18 156.385C258.817 156.959 259.199 157.278 259.199 157.278C259.199 157.278 260.726 155.236 262.063 153.129C264.291 149.682 266.328 152.363 266.328 152.363Z" fill="white"/>
<path d="M250.86 128.556C252.758 128.556 254.297 125.727 254.297 122.237C254.297 118.746 252.758 115.917 250.86 115.917C248.962 115.917 247.423 118.746 247.423 122.237C247.423 125.727 248.962 128.556 250.86 128.556Z" fill="#33EBBD"/>
<path d="M207.521 278.305C206.211 279.36 204.561 279.866 202.981 280.444C201.401 281.021 199.79 281.743 198.759 283.074C199.259 284.043 199.669 285.048 200.164 286.018L204.502 294.319C203.641 294.002 202.682 294.1 201.904 294.587C200.309 295.556 199.067 297.014 198.358 298.745C198.074 299.434 197.881 300.292 198.294 300.977C198.767 301.761 199.768 301.9 200.588 301.818C201.817 301.695 202.998 301.275 204.03 300.593C204.85 300.086 205.502 299.344 205.9 298.463C206.297 297.518 206.26 296.445 205.798 295.53L201.584 285.01C202.427 284.583 203.309 284.24 204.219 283.986C205.7 283.522 207.265 282.93 208.146 281.647C207.619 280.617 207.402 279.456 207.521 278.305Z" fill="#BBF8E9"/>
<path d="M211.08 222.34L205.916 208.8C206.22 212.283 196.482 218.047 196.482 218.047L201.017 227.479C199.771 227.703 198.871 228.852 198.983 230.126C199.084 231.48 200.304 232.46 201.666 232.351C203.029 232.243 204.022 231.024 203.921 229.669C203.864 229.149 203.656 228.64 203.297 228.259L200.222 220.767C205.835 220.239 205.654 214.786 205.654 214.786L208.381 221.469C207.472 221.773 206.83 222.644 206.896 223.662C207.009 224.82 208.031 225.673 209.196 225.553C210.36 225.434 211.225 224.412 211.112 223.255C211.078 222.919 210.986 222.641 210.824 222.387L211.08 222.34Z" fill="#60EFCB"/>
<path d="M220.529 41.4483L220.513 41.4251C220.116 40.7983 219.279 40.5933 218.615 40.9602L204.128 48.9743C203.82 49.1447 203.697 49.5169 203.847 49.8266L204.127 50.4041C204.474 51.207 205.249 52.7767 205.27 52.7652L209.324 61.1423C207.513 60.8453 204.597 63.6398 203.924 64.8628C203.604 65.4453 203.365 66.1565 203.657 66.7466C203.996 67.4319 204.899 67.645 205.682 67.6146C207.33 67.5389 208.867 66.7578 209.882 65.4803C210.479 64.7176 210.869 63.74 210.68 62.8047C210.611 62.3796 210.439 61.9778 210.178 61.6329L207.17 52.2878C207.078 52.0022 207.204 51.6909 207.473 51.5413C211.435 49.3357 215.405 47.0979 219.368 44.8903C219.488 44.8236 219.63 44.8083 219.761 44.8482C219.892 44.888 220 44.9794 220.058 45.1004L224.598 54.4811C223.048 54.4376 220.738 56.6706 220.188 57.6708C219.915 58.1661 219.711 58.7737 219.96 59.2769C220.249 59.861 221.018 60.0429 221.686 60.0167C223.299 59.9457 224.772 59.0788 225.593 57.7167C225.978 57.0752 226.077 56.3107 225.868 55.6016C225.796 55.3429 225.67 55.1018 225.498 54.8936L222.571 45.8C222.079 44.2707 221.393 42.8089 220.529 41.4483Z" fill="#A4F6E1"/>
<defs>
<linearGradient id="paint0_linear_17114_55831" x1="23.4756" y1="146.373" x2="151.631" y2="380.716" gradientUnits="userSpaceOnUse">
<stop stop-color="#103065"/>
<stop offset="1" stop-color="#1D55B3"/>
</linearGradient>
<linearGradient id="paint1_linear_17114_55831" x1="161.725" y1="269.289" x2="255.718" y2="290.008" gradientUnits="userSpaceOnUse">
<stop stop-color="#2AFFB3"/>
<stop offset="1" stop-color="#23BCE6"/>
</linearGradient>
<linearGradient id="paint2_linear_17114_55831" x1="232.846" y1="259.664" x2="318.003" y2="267.352" gradientUnits="userSpaceOnUse">
<stop stop-color="#2AFFB3"/>
<stop offset="1" stop-color="#23BCE6"/>
</linearGradient>
<linearGradient id="paint3_linear_17114_55831" x1="83.5775" y1="181.439" x2="238.789" y2="218.647" gradientUnits="userSpaceOnUse">
<stop stop-color="#2AFFB3"/>
<stop offset="1" stop-color="#23BCE6"/>
</linearGradient>
<linearGradient id="paint4_linear_17114_55831" x1="144.241" y1="95.8029" x2="250.979" y2="105.54" gradientUnits="userSpaceOnUse">
<stop stop-color="#2AFFB3"/>
<stop offset="1" stop-color="#23BCE6"/>
</linearGradient>
</defs>
</svg>
