<svg width="28" height="28" viewBox="0 0 28 28" fill="none" xmlns="http://www.w3.org/2000/svg">
<path d="M13.7756 0.00138376C6.19137 0.110267 0.0310901 6.36329 0.000133907 13.9851C-0.0308223 21.187 5.30912 27.1289 12.2433 28V21.5137C12.2433 19.3671 11.2527 17.3605 9.58107 16.0073C9.31795 15.805 9.08577 15.5717 8.8536 15.3228C6.37711 12.6319 6.39259 8.41652 8.90004 5.7411C11.6706 2.78569 16.3295 2.78569 19.1001 5.7411C21.5921 8.41652 21.6075 12.6319 19.1465 15.3228C18.9144 15.5717 18.6667 15.805 18.4191 16.0073C16.7629 17.3605 15.7568 19.3671 15.7568 21.5137V28C22.6601 27.1289 28 21.2181 28 14.0629C27.969 6.2233 21.5921 -0.1075 13.7756 0.00138376Z" fill="url(#paint0_linear_15889_30958)"/>
<defs>
<linearGradient id="paint0_linear_15889_30958" x1="0" y1="14" x2="28" y2="14" gradientUnits="userSpaceOnUse">
<stop stop-color="#457BF7"/>
<stop offset="1" stop-color="#175BF5"/>
</linearGradient>
</defs>
</svg>
